<svg width="61" height="100" viewBox="0 0 61 100" fill="none" xmlns="http://www.w3.org/2000/svg">
<mask id="path-1-inside-1_6_108" fill="white">
<path d="M18.1818 26.6862H60.7038V100H18.1818V26.6862Z"/>
</mask>
<path d="M18.1818 26.6862H60.7038V100H18.1818V26.6862Z" fill="white"/>
<path d="M60.7038 100V101H61.7038V100H60.7038ZM18.1818 100H17.1818V101H18.1818V100ZM59.7038 26.6862V100H61.7038V26.6862H59.7038ZM60.7038 99H18.1818V101H60.7038V99ZM19.1818 100V26.6862H17.1818V100H19.1818Z" fill="#858585" mask="url(#path-1-inside-1_6_108)"/>
<circle cx="39.5894" cy="45.4545" r="14.0762" fill="#436997"/>
<path d="M43.615 38.843H45.3479L40.3359 52.4927H38.6297L33.6177 38.843H35.3506L39.4295 50.3332H39.5361L43.615 38.843ZM42.9752 44.1749H35.9904V42.7086H42.9752V44.1749Z" fill="white"/>
<circle cx="39.5894" cy="81.8182" r="14.0762" fill="#436997"/>
<path d="M43.615 75.2066H45.3479L40.3359 88.8563H38.6297L33.6177 75.2066H35.3506L39.4295 86.6969H39.5361L43.615 75.2066ZM42.9752 80.5385H35.9904V79.0722H42.9752V80.5385Z" fill="white"/>
<path d="M17.9751 26.6862C17.9751 34.015 16.946 40.6287 15.297 45.3927C14.4716 47.777 13.5002 49.6708 12.4463 50.9586C11.3893 52.2501 10.3022 52.8724 9.23754 52.8724C8.17289 52.8724 7.08578 52.2501 6.02881 50.9586C4.97486 49.6708 4.00346 47.777 3.1781 45.3927C1.52905 40.6287 0.5 34.015 0.5 26.6862C0.5 19.3574 1.52905 12.7437 3.1781 7.97977C4.00346 5.59542 4.97486 3.70162 6.02881 2.4138C7.08578 1.1223 8.17289 0.5 9.23754 0.5C10.3022 0.5 11.3893 1.1223 12.4463 2.4138C13.5002 3.70162 14.4716 5.59542 15.297 7.97977C16.946 12.7437 17.9751 19.3574 17.9751 26.6862Z" fill="white" stroke="#858585"/>
<mask id="path-8-inside-2_6_108" fill="white">
<path d="M10.5572 0H51.6129V53.3724H10.5572V0Z"/>
</mask>
<path d="M10.5572 0H51.6129V53.3724H10.5572V0Z" fill="white"/>
<path d="M51.6129 0H52.6129V-1H51.6129V0ZM51.6129 53.3724V54.3724H52.6129V53.3724H51.6129ZM10.5572 1H51.6129V-1H10.5572V1ZM50.6129 0V53.3724H52.6129V0H50.6129ZM51.6129 52.3724H10.5572V54.3724H51.6129V52.3724Z" fill="#858585" mask="url(#path-8-inside-2_6_108)"/>
<path d="M60.2038 26.6862C60.2038 34.015 59.1748 40.6287 57.5257 45.3927C56.7004 47.777 55.729 49.6708 54.675 50.9586C53.6181 52.2501 52.5309 52.8724 51.4663 52.8724C50.4016 52.8724 49.3145 52.2501 48.2576 50.9586C47.2036 49.6708 46.2322 47.777 45.4069 45.3927C43.7578 40.6287 42.7288 34.015 42.7288 26.6862C42.7288 19.3574 43.7578 12.7437 45.4069 7.97977C46.2322 5.59542 47.2036 3.70162 48.2576 2.4138C49.3145 1.1223 50.4016 0.5 51.4663 0.5C52.5309 0.5 53.6181 1.1223 54.675 2.4138C55.729 3.70162 56.7004 5.59542 57.5257 7.97977C59.1748 12.7437 60.2038 19.3574 60.2038 26.6862Z" fill="white" stroke="#858585"/>
<path d="M54.9252 26.8329C54.9252 29.8291 54.5034 32.5205 53.8362 34.4452C53.5018 35.4099 53.1149 36.1549 52.7101 36.6488C52.3024 37.1463 51.9288 37.3299 51.6129 37.3299C51.297 37.3299 50.9235 37.1463 50.5157 36.6488C50.1109 36.1549 49.7241 35.4099 49.3896 34.4452C48.7224 32.5205 48.3006 29.8291 48.3006 26.8329C48.3006 23.8366 48.7224 21.1452 49.3896 19.2205C49.7241 18.2558 50.1109 17.5108 50.5157 17.0169C50.9235 16.5194 51.297 16.3358 51.6129 16.3358C51.9288 16.3358 52.3024 16.5194 52.7101 17.0169C53.1149 17.5108 53.5018 18.2558 53.8362 19.2205C54.5034 21.1452 54.9252 23.8366 54.9252 26.8329Z" fill="#D9D9D9" stroke="#858585"/>
</svg>
